{"title":"Die 2010 720p BRRip.x264.Feel-Free","uid":6121873,"size":1842291025,"categoryP":"video","categoryS":"hd___movies","magnet":"?xt=urn:btih:25f480851123cc2ccebb6a116e992a7fc13ff0c3&amp;dn=Die+2010+720p+BRRip.x264.Feel-Free&amp;tr=udp%3A%2F%2Ftracker.openbittorrent.com%3A80&amp;tr=udp%3A%2F%2Fopen.demonii.com%3A1337&amp;tr=udp%3A%2F%2Ftracker.coppersurfer.tk%3A6969&amp;tr=udp%3A%2F%2Fexodus.desync.com%3A6969","seeders":0,"leechers":0,"uploader":"neon","files":-1,"time":1295742963,"description":"Genre:Thriller\nLanguage:English\n &lt;a href=&quot; http://www.imdb.com/title/tt1465478/&quot; rel=&quot;nofollow&quot; target=&quot;_NEW&quot;&gt; http://www.imdb.com/title/tt1465478/&lt;/a&gt;\nSource:720p.BluRay.x264-HD4U\n\n\nFormat : Matroska\nFile size : 1.71 GiB\nDuration : 1h 31mn\nOverall bit rate : 2 681 Kbps\n\n\nVideo\nFormat settings, CABAC : Yes\nFormat settings, ReFrames : 4 frames\nCodec ID : V_MPEG4/ISO/AVC\nDuration : 1h 31mn\nBit rate : 2 300 Kbps\nWidth : 1 280 pixels\nHeight : 544 pixels\nDisplay aspect ratio : 2.35:1\nFrame rate mode : Variable\nFrame rate : 23.976 fps\nColor space : YUV\nChroma subsampling : 4:2:0\nBit depth : 8 bits\nScan type : Progressive\nBits/(Pixel*Frame) : 0.138\nStream size : 1.43 GiB (84%)\nWriting library : x264\n\n\nAudio\nID : 2\nFormat : AC-3\nFormat/Info : Audio Coding 3\nMode extension : CM (complete main)\nCodec ID : A_AC3\nDuration : 1h 31mn\nBit rate mode : Constant\nBit rate : 384 Kbps\nChannel(s) : 6 channels\nChannel positions : Front: L C R, Side: L R, LFE\nSampling rate : 48.0 KHz\nBit depth : 16 bits\nVideo delay : -1mn 5s\nStream size : 251 MiB (14%)\nLanguage : English\n\nSix people, each of them is on the road to self-destruction. They wake up in cells in a surreal facility, without knowing how they got there or why. Are they in denial? Are they crazy? What happened? As they try to figure things out, a mysterious man\nforces the six abductees to participate in a disturbing experiment called the Trials. During the experiment, the unwilling participants will come to face disturbing truths about themselves and decide each others and fate in a game of dice. As the storyline unfolds, we discover that something greater connects them all\n &lt;a href=&quot;\nhttp://shareimage.org/images/0qxfbnureneqrn6j31n2.png&quot; rel=&quot;nofollow&quot; target=&quot;_NEW&quot;&gt;\nhttp://shareimage.org/images/0qxfbnureneqrn6j31n2.png&lt;/a&gt; &lt;a href=&quot;\nhttp://shareimage.org/images/ohpsg0a1johhf4dlg3.png&quot; rel=&quot;nofollow&quot; target=&quot;_NEW&quot;&gt;\nhttp://shareimage.org/images/ohpsg0a1johhf4dlg3.png&lt;/a&gt; &lt;a href=&quot;\nhttp://shareimage.org/images/7n81sva05hmgzcs02h65.png&quot; rel=&quot;nofollow&quot; target=&quot;_NEW&quot;&gt;\nhttp://shareimage.org/images/7n81sva05hmgzcs02h65.png&lt;/a&gt;","torrent":{"xt":"urn:btih:25f480851123cc2ccebb6a116e992a7fc13ff0c3","amp;dn":"Die+2010+720p+BRRip.x264.Feel-Free","amp;tr":["udp%3A%2F%2Ftracker.openbittorrent.com%3A80","udp%3A%2F%2Fopen.demonii.com%3A1337","udp%3A%2F%2Ftracker.coppersurfer.tk%3A6969","udp%3A%2F%2Fexodus.desync.com%3A6969"],"infoHash":"25f480851123cc2ccebb6a116e992a7fc13ff0c3","infoHashBuffer":{"type":"Buffer","data":[37,244,128,133,17,35,204,44,206,187,106,17,110,153,42,127,193,63,240,195]},"announce":[],"urlList":[]}}